<svg width="500" height="500" viewBox="0 0 500 500" fill="none" xmlns="http://www.w3.org/2000/svg">
<path d="M459.352 81.3516L397.008 19.0195C397.024 19.0951 406.156 62.3835 428.389 84.6123C450.467 106.687 493.323 115.85 493.992 115.992L494 116L493.958 116.041C492.44 116.366 450.239 125.568 428.389 147.414C406.408 169.391 397.232 211.952 397.012 212.987L397 213L396.984 212.984C396.696 211.635 387.507 169.317 365.611 147.425C343.818 125.636 301.78 116.425 300.055 116.055L300 116L300.021 115.979C301.093 115.75 343.64 106.569 365.611 84.6016C387.852 62.365 396.983 19.0542 396.992 19.0088L394.062 21.9375L397 19L459.352 81.3516Z" fill="#011D45"/>
<path d="M305.001 53.501L284.503 33.0068C284.503 33.0068 287.75 48.4229 295.664 56.3359C303.515 64.1853 318.752 67.4451 318.997 67.4971L319 67.5L318.984 67.5146C318.433 67.6329 303.432 70.906 295.664 78.6729C287.848 86.4872 284.584 101.619 284.504 101.995L284.5 102L284.494 101.994C284.39 101.507 281.122 86.4612 273.336 78.6768C265.58 70.9225 250.616 67.6469 250.019 67.5186L250 67.5L250.007 67.4922C250.378 67.4132 265.519 64.1479 273.336 56.332C281.25 48.4189 284.497 33.0029 284.497 33.0029L284.5 33L305.001 53.501Z" fill="#011D45"/>
<path d="M464.001 235.501L443.503 215.007C443.503 215.007 446.75 230.423 454.664 238.336C462.515 246.185 477.752 249.445 477.997 249.497L478 249.5L477.984 249.515C477.433 249.633 462.432 252.906 454.664 260.673C446.848 268.487 443.584 283.619 443.504 283.995L443.5 284L443.494 283.994C443.39 283.507 440.122 268.461 432.336 260.677C424.58 252.923 409.616 249.647 409.019 249.519L409 249.5L409.007 249.492C409.378 249.413 424.519 246.148 432.336 238.332C440.25 230.419 443.497 215.003 443.497 215.003L443.5 215L464.001 235.501Z" fill="#011D45"/>
<path d="M63.25 471.562C52.0521 470.521 38.9661 470 23.9922 470H8.5625L93.5234 231.914C97.2995 221.237 99.1875 215.052 99.1875 213.359C99.1875 211.536 99.1224 210.43 98.9922 210.039L99.1875 209.648C107.651 210.039 116.635 210.234 126.141 210.234C133.953 210.234 143.328 210.104 154.266 209.844L154.461 210.234C154.201 210.755 154.07 211.471 154.07 212.383C154.07 214.857 156.023 221.432 159.93 232.109L246.648 470.586C244.044 470.456 240.984 470.391 237.469 470.391C237.469 470.391 234.083 470.26 227.312 470C224.057 470 221.128 470 218.523 470H188.25L169.891 413.75H81.6094L63.25 471.562ZM154.656 366.875L125.164 276.055L96.4531 366.875H154.656ZM284.344 209.453C297.365 209.974 305.242 210.234 307.977 210.234H322.039C328.94 210.234 334.474 209.714 338.641 208.672L338.445 470H284.344V209.453Z" fill="#011D45"/>
</svg>
