<svg width="2249" height="512" viewBox="0 0 2249 512" fill="none" xmlns="http://www.w3.org/2000/svg">
<circle cx="2168" cy="83" r="35" fill="#FF8000"/>
<path d="M30.5 369.5V33.5C30.5 33.5 63.845 31.949 141.5 33.5C219.155 35.0509 287.5 95.5 285.5 218C283.5 340.5 194.773 367.828 140.5 369.5C86.227 371.172 30.5 369.5 30.5 369.5Z" stroke="#062039" stroke-opacity="0.99" stroke-width="50" stroke-linejoin="round"/>
<path d="M700.5 150L757.25 257C757.25 257 791.838 322.214 814 364M814 364C850.905 280.428 908.5 150 908.5 150M814 364C793.497 411.644 761.5 486 761.5 486" stroke="#062039" stroke-width="50" stroke-linecap="round"/>
<path d="M1152 38V366C1152 366.552 1152.45 367 1153 367H1358" stroke="#062039" stroke-width="50" stroke-linecap="round"/>
<circle cx="1465" cy="49" r="35" fill="#062039"/>
<path d="M1465 148V379" stroke="#062039" stroke-width="50" stroke-linecap="round"/>
<path d="M1608 149.5V371" stroke="#062039" stroke-width="50" stroke-linecap="round"/>
<path d="M1808 238V371" stroke="#062039" stroke-width="50" stroke-linecap="round"/>
<path d="M1832.5 237.568C1832.78 244.195 1830.41 250.596 1825.8 255.364C1821.2 260.133 1814.73 262.879 1807.93 262.996C1801.13 263.113 1794.57 260.592 1789.81 255.985C1785.04 251.379 1782.44 245.063 1782.5 238.431C1782.5 238.431 1782.5 238.431 1782.5 238.431C1782.57 233.447 1782.38 228.587 1781.91 223.873C1779.31 181.376 1746.45 160.943 1700.08 166.508C1653.27 167.541 1635.1 217.251 1633.21 269.647C1632.87 275.219 1632.65 280.845 1632.5 286.5C1632.39 290.635 1630.61 294.601 1627.61 297.525C1624.61 300.449 1620.64 302.092 1616.5 302.092C1612.36 302.092 1608.39 300.449 1605.39 297.525C1602.39 294.601 1600.61 290.635 1600.5 286.5C1600.35 280.562 1600.28 274.579 1600.33 268.561C1600.78 240.454 1602.55 210.732 1616.33 181.337C1629.21 151.248 1663.39 128.805 1694.92 125.492C1721.95 121.568 1753.41 121.629 1782.15 138.654C1811.32 155.622 1826.62 188.776 1830.58 217.435C1831.63 224.189 1832.23 230.891 1832.5 237.568Z" fill="#062039"/>
<path d="M1927 255.5H2132.5C2127.56 185.953 2078.5 142.5 2034 142.5C1989.5 142.5 1927 155.5 1927 255.5ZM1927 255.5C1926.5 312.5 1955.5 381 2027 381.5C2098.5 382 2113 349.5 2113 349.5" stroke="#062039" stroke-width="50" stroke-linecap="round" stroke-linejoin="round"/>
<path d="M503.893 118.001C581.647 117.655 645.309 182.718 642.937 260.791C642.242 283.669 635.647 304.56 624.967 322.694C624.339 322.288 623.665 321.953 622.944 321.717C620.973 320.919 618.861 320.727 617.516 320.775C616.221 320.815 615.035 321.001 613.893 321.264C611.737 321.889 609.835 323.441 608.581 325.439C607.329 327.446 606.828 329.735 607.212 331.943C607.478 333.47 608.157 334.891 609.164 336.107C594.089 356.311 558.81 383.293 529.859 391.48C525.522 392.477 521.158 393.268 516.786 393.845C516.162 393.883 515.552 393.908 514.965 393.916C513.739 394.005 512.538 394.183 511.371 394.45C507.406 394.812 503.439 395 499.487 395C429.327 395 363.354 334.924 366.08 259.132C368.644 187.871 424.676 118.353 503.893 118.001ZM505 164C455.295 164 415.001 206.309 415 258.5C415 310.691 455.295 353 505 353C554.706 352.999 595 310.69 595 258.5C595 206.309 554.706 164 505 164Z" fill="#062039"/>
<path d="M620.007 370L620.385 259" stroke="#062039" stroke-width="45" stroke-linecap="round"/>
<path d="M618.369 285.5C624.104 246.018 614.677 209.085 606.5 207.5" stroke="#062039" stroke-width="45" stroke-linecap="round"/>
</svg>
