<svg width="500" height="500" viewBox="0 0 500 500" fill="none" xmlns="http://www.w3.org/2000/svg">
<path d="M386 31C400.365 31 413.868 34.6947 425.609 41.1846L394.856 71.9375C392.342 71.3977 389.744 71.0811 387.084 71.0137L386 71H112C88.804 71 70 89.804 70 113V387L70.0137 388.084C70.5886 410.779 89.1665 429 112 429H386L387.084 428.986C409.419 428.421 427.42 410.419 427.986 388.084L428 387V181.139L468 141.139V387C468 432.287 431.287 469 386 469H112C66.7127 469 30 432.287 30 387V113C30 67.7127 66.7126 31 112 31H386Z" fill="#969A9C"/>
<rect x="105" y="251.252" width="50" height="154.005" transform="rotate(-45 105 251.252)" fill="#969A9C"/>
<rect width="50" height="381.548" transform="matrix(-0.707107 -0.707107 -0.707107 0.707107 484.518 90.3553)" fill="#969A9C"/>
</svg>
