<svg width="500" height="500" viewBox="0 0 500 500" fill="none" xmlns="http://www.w3.org/2000/svg">
<path d="M72.9939 172.477C71.8826 161.487 79.8905 151.677 90.8802 150.566C101.87 149.455 111.68 157.463 112.791 168.452L92.8924 170.465L72.9939 172.477ZM251.68 449.557H271.68V489.557H251.68V469.557V449.557ZM122.319 461.463L102.421 463.475L122.319 461.463ZM92.8924 170.465L112.791 168.452L142.218 459.45L122.319 461.463L102.421 463.475L72.9939 172.477L92.8924 170.465ZM131.273 469.557V449.557H251.68V469.557V489.557H131.273V469.557ZM122.319 461.463L142.218 459.45C141.65 453.832 136.92 449.557 131.273 449.557V469.557V489.557C116.387 489.557 103.918 478.286 102.421 463.475L122.319 461.463Z" fill="#969A9C"/>
<path d="M422.805 172.477C423.917 161.487 415.909 151.677 404.919 150.566C393.929 149.455 384.12 157.463 383.008 168.452L402.907 170.465L422.805 172.477ZM244.119 449.557H224.119V489.557H244.119V469.557V449.557ZM373.48 461.463L393.379 463.475L373.48 461.463ZM402.907 170.465L383.008 168.452L353.582 459.45L373.48 461.463L393.379 463.475L422.805 172.477L402.907 170.465ZM364.526 469.557V449.557H244.119V469.557V489.557H364.526V469.557ZM373.48 461.463L353.582 459.45C354.15 453.832 358.879 449.557 364.526 449.557V469.557V489.557C379.412 489.557 391.881 478.286 393.379 463.475L373.48 461.463Z" fill="#969A9C"/>
<line x1="86" y1="98.3754" x2="414" y2="98.3754" stroke="#969A9C" stroke-width="40" stroke-linecap="round"/>
<path d="M252.145 27H202.356C201.547 27 200.817 27.4877 200.508 28.2356L176 87.4906" stroke="#969A9C" stroke-width="40"/>
<path d="M252.145 27H301.934C302.743 27 303.473 27.4877 303.782 28.2356L328.29 87.4906" stroke="#969A9C" stroke-width="40"/>
</svg>
