<svg width="500" height="513" viewBox="0 0 500 513" fill="none" xmlns="http://www.w3.org/2000/svg">
<line x1="242.999" y1="278.006" x2="378.999" y2="278" stroke="#969A9C" stroke-width="28"/>
<path d="M253 292.025L253 110" stroke="#969A9C" stroke-width="28"/>
<path d="M297.878 50.6655C284.392 48.2126 270.492 46.9309 256.29 46.9309C130.09 46.9309 27.7854 148.13 27.7854 272.965C27.7854 397.801 130.09 499 256.29 499" stroke="#969A9C" stroke-width="28"/>
<path d="M253.623 68.3304L268.835 12.1774L335.765 60.444L253.623 68.3304Z" fill="#969A9C" stroke="#969A9C"/>
<path d="M282.631 497.431L284.28 511.334C275.001 512.435 265.563 513 256 513V485C264.459 485 272.795 484.5 280.981 483.528L282.631 497.431ZM390.312 454.213L398.723 465.404C383.695 476.698 367.284 486.255 349.787 493.775L338.73 468.051C354.156 461.421 368.634 452.991 381.9 443.021L390.312 454.213ZM461.992 362.927L474.864 368.433C467.373 385.945 457.85 402.374 446.596 417.42L424.174 400.648C434.111 387.363 442.514 372.866 449.121 357.421L461.992 362.927ZM492.706 249.654C493.562 257.872 494 266.211 494 274.646C494 284.207 493.437 293.642 492.342 302.919L464.535 299.636C465.502 291.446 466 283.108 466 274.646C466 267.181 465.612 259.81 464.856 252.554L478.781 251.104L492.706 249.654ZM456.724 146.522C465.644 160.511 473.148 175.497 479.032 191.279L465.914 196.17L452.797 201.061C447.608 187.144 440.988 173.923 433.115 161.576L444.92 154.049L456.724 146.522ZM378.539 70.2744C392.89 78.9223 406.252 89.0415 418.419 100.422L408.855 110.646L399.292 120.87C388.547 110.819 376.75 101.887 364.088 94.2568L378.539 70.2744Z" fill="#969A9C"/>
</svg>
