<svg width="500" height="500" viewBox="0 0 500 500" fill="none" xmlns="http://www.w3.org/2000/svg">
<path d="M142 187C124 198.5 101.5 193.5 101.5 193.5C86.1741 131.196 93.5404 106.491 118.5 70L185 22.5L214.5 148C214.5 148 190.777 143.035 177 148C157.747 154.938 160 175.5 142 187Z" fill="#969A9C"/>
<path d="M92.0012 131.477C92.2867 176.207 95.3567 218.242 141.001 246.977C141.001 246.977 221 202.5 227.001 193.477C233.002 184.454 233.502 181.454 232.501 168.977C231.5 156.5 225.501 143.977 225.501 143.977C225.501 143.977 210.084 117.819 201.001 92.4772C191.919 67.135 184.219 11.2743 184.501 17.4772C137.032 32.5773 91.7156 86.7475 92.0012 131.477Z" stroke="#969A9C" stroke-width="30" stroke-linejoin="round"/>
<path d="M146 244L350 483L391.5 455.5L233 196" stroke="#969A9C" stroke-width="30" stroke-linecap="round" stroke-linejoin="round"/>
</svg>
