<svg width="500" height="500" viewBox="0 0 500 500" fill="none" xmlns="http://www.w3.org/2000/svg">
<path d="M377.5 228.5L249.5 434L122 227.5" stroke="#47B2F7" stroke-width="30" stroke-linejoin="round"/>
<path d="M250 0C338.366 0 410 71.4106 410 159.5C410 226.012 369.16 283.011 311.116 306.946L358.728 230.509C359.945 228.663 361.114 226.784 362.237 224.874L363.76 222.431L363.67 222.375C374.074 203.749 380 182.306 380 159.5C380 88.0676 321.886 30 250 30C178.114 30 120 88.0676 120 159.5C120 181.246 125.386 201.753 134.906 219.761L134.73 219.87L136.936 223.449C138.369 225.958 139.883 228.415 141.477 230.816L188.23 306.677C130.533 282.584 90 225.762 90 159.5C90 71.4106 161.634 0 250 0Z" fill="#47B2F7"/>
<circle cx="250" cy="163" r="58" stroke="#47B2F7" stroke-width="30"/>
<path d="M184.959 358.021C153.68 362.077 126.225 368.97 104.578 377.629C86.7641 384.755 74.3612 392.489 66.9023 399.543C59.5068 406.537 59 410.757 59 412C59 413.243 59.5068 417.463 66.9023 424.457C74.3612 431.511 86.7641 439.245 104.578 446.371C140.04 460.556 191.088 470 249 470C306.912 470 357.96 460.556 393.422 446.371C411.236 439.245 423.639 431.511 431.098 424.457C438.493 417.463 439 413.243 439 412C439 410.757 438.493 406.537 431.098 399.543C423.639 392.489 411.236 384.755 393.422 377.629C372.085 369.094 345.106 362.279 314.385 358.201L331.684 330.429C412.212 343.501 469 375.097 469 412C469 460.601 370.503 500 249 500C127.497 500 29 460.601 29 412C29 374.874 86.4762 343.12 167.777 330.194L184.959 358.021Z" fill="#47B2F7"/>
</svg>
