<svg width="542" height="500" viewBox="0 0 542 500" fill="none" xmlns="http://www.w3.org/2000/svg">
<path d="M421.67 315.72C428.51 295.488 432.218 273.814 432.218 251.273C432.218 140.204 342.178 50.1644 231.109 50.1644C120.04 50.1644 30 140.204 30 251.273C30 362.343 120.04 452.383 231.109 452.383C271.626 452.383 309.344 440.401 340.915 419.787" stroke="#948078" stroke-width="60"/>
<path d="M367.206 415.143C363.503 417.194 358.967 414.466 359.043 410.233L361.676 262.54C361.752 258.307 366.381 255.743 370.009 257.925L496.599 334.053C500.227 336.235 500.132 341.526 496.428 343.577L367.206 415.143Z" fill="#948078" stroke="#948078"/>
</svg>
