<svg width="500" height="500" viewBox="0 0 500 500" fill="none" xmlns="http://www.w3.org/2000/svg">
<circle cx="250" cy="250" r="250" fill="#FF9500"/>
<path d="M231 382.282C231 392.775 239.507 401.282 250 401.282C260.493 401.282 269 392.775 269 382.282H250H231ZM263.435 104.565C256.015 97.145 243.985 97.145 236.565 104.565L115.65 225.48C108.23 232.9 108.23 244.93 115.65 252.35C123.07 259.77 135.1 259.77 142.52 252.35L250 144.87L357.48 252.35C364.9 259.77 376.93 259.77 384.35 252.35C391.77 244.93 391.77 232.9 384.35 225.48L263.435 104.565ZM250 382.282H269L269 118H250H231L231 382.282H250Z" fill="white"/>
</svg>
