<svg width="500" height="501" viewBox="0 0 500 501" fill="none" xmlns="http://www.w3.org/2000/svg">
<circle cx="183.5" cy="211.5" r="17.5" fill="#011D45"/>
<circle cx="311.5" cy="211.5" r="17.5" fill="#011D45"/>
<path d="M208 275C208 291.016 227.252 304 251 304C274.748 304 294 291.016 294 275" stroke="#011D45" stroke-width="13" stroke-linecap="round"/>
<path d="M95 403C175 404.511 200.468 480.589 200 491.651C199.532 502.713 250.5 432 264.5 396.5" stroke="#011D45" stroke-width="15"/>
<path d="M412.97 12.0059C453.944 12.5251 487 45.9024 487 87V336C487 377.098 453.944 410.475 412.97 410.994L412 411H249.6C254.664 400.185 258.293 391.535 261.889 382H412C437.405 382 458 361.405 458 336V87C458 61.5949 437.405 41 412 41H86C60.5949 41 40 61.5949 40 87V336C40 361.405 60.5949 382 86 382H100.886C105.204 384.066 120.467 392.106 136.723 402.069C141.38 404.924 146.112 407.932 150.688 411H86C44.5786 411 11 377.421 11 336V87C11 45.5786 44.5786 12 86 12H412L412.97 12.0059Z" fill="#011D45"/>
<path d="M424 59C436.427 110.37 451.159 129.094 498 138.5C451.817 146.582 436.624 165.489 423.5 218C412.896 162.083 394.631 147.502 349 138.5C393.725 129.53 412.05 114.845 424 59Z" fill="#FB8C00"/>
<path d="M201 480C232.812 443.871 260.5 387.5 261.5 388" stroke="#011D45" stroke-width="12"/>
<path d="M205 469C198.649 432.371 135.329 387.632 99.5 388" stroke="#011D45" stroke-width="12"/>
</svg>
