<svg width="500" height="500" viewBox="0 0 500 500" fill="none" xmlns="http://www.w3.org/2000/svg">
<rect x="120.49" y="248.51" width="50" height="154.005" transform="rotate(-45 120.49 248.51)" fill="#FF9500"/>
<rect width="50" height="381.548" transform="matrix(-0.707107 -0.707107 -0.707107 0.707107 500.008 87.6125)" fill="#FF9500"/>
<path d="M250 50C302.25 50 349.817 70.0386 385.443 102.847L364.211 124.079C334.032 96.69 293.965 80 250 80C156.112 80 80 156.112 80 250C80 343.888 156.112 420 250 420C343.888 420 420 343.888 420 250C420 233.456 417.633 217.465 413.226 202.344L436.902 178.667C445.364 200.824 450 224.87 450 250C450 360.457 360.457 450 250 450C139.543 450 50 360.457 50 250C50 139.543 139.543 50 250 50Z" fill="#FF9500"/>
</svg>
