<svg width="500" height="500" viewBox="0 0 500 500" fill="none" xmlns="http://www.w3.org/2000/svg">
<path d="M104.337 447.832C104.337 456.761 97.0974 464 88.168 464C79.2387 464 72.0002 456.761 72 447.832V194.385C77.0235 196.08 82.4043 197 88 197C93.7211 197 99.2173 196.038 104.337 194.269V447.832ZM233.684 391.275C238.797 393.04 244.287 394 250 394C255.603 394 260.991 393.078 266.021 391.378V447.832C266.02 456.761 258.781 464 249.852 464C240.922 464 233.684 456.761 233.684 447.832V391.275ZM395.367 231.801C400.851 233.868 406.793 235 413 235C418.117 235 423.055 234.23 427.704 232.802V447.832C427.704 456.761 420.464 464 411.535 464C402.606 464 395.367 456.761 395.367 447.832V231.801ZM249.852 35C258.781 35.0001 266.02 42.2387 266.021 51.168V296.621C260.991 294.921 255.603 294 250 294C244.287 294 238.797 294.959 233.684 296.724V51.168C233.684 42.2387 240.922 35.0002 249.852 35ZM411.535 35C420.464 35.0002 427.704 42.2387 427.704 51.168V137.197C423.055 135.769 418.117 135 413 135C406.793 135 400.851 136.131 395.367 138.198V51.168C395.367 42.2387 402.606 35.0002 411.535 35ZM88.168 35C97.0974 35 104.337 42.2386 104.337 51.168V99.7305C99.2173 97.9614 93.721 97 88 97C82.4045 97 77.0234 97.9187 72 99.6143V51.168C72.0002 42.2387 79.2387 35.0002 88.168 35Z" fill="#FF8000"/>
<circle cx="88" cy="147" r="38.5" stroke="#FF8000" stroke-width="23"/>
<circle cx="250" cy="344" r="38.5" stroke="#FF8000" stroke-width="23"/>
<circle cx="413" cy="185" r="38.5" stroke="#FF8000" stroke-width="23"/>
</svg>
