<svg width="1008" height="1007" viewBox="0 0 1008 1007" fill="none" xmlns="http://www.w3.org/2000/svg">
<path d="M622.131 865.259H478.242V966.153H321.212C321.212 966.153 262.08 809.638 229.228 788.942C196.377 768.246 97.1656 755.311 97.1656 755.311L40.0042 545.762L133.302 495.315C152.585 433.921 169.58 402.034 220.687 353.675L204.918 227.558C204.918 227.558 343.551 253.428 395.457 253.428C447.362 253.428 542.771 217.2 648.413 253.428C754.054 289.656 799.763 337.682 873.116 416.411C873.116 416.411 948.667 405.792 964.443 435.167C981.287 466.529 932.906 520.538 932.906 520.538C932.906 520.538 955.245 585.214 938.162 662.825C921.079 740.435 882.441 778.57 823.182 847.15C790.613 891.739 780.002 918.444 761.421 966.153H622.131V865.259Z" stroke="#FF8000" stroke-width="80" stroke-linejoin="round"/>
<circle cx="275.319" cy="551.583" r="41.2497" fill="#FF8000"/>
<path d="M504.004 156.582C504.004 156.582 535.821 12.4832 673.696 44.693C811.57 76.9028 792.347 213.496 792.347 213.496" stroke="#FF8000" stroke-width="80" stroke-linecap="round"/>
</svg>
