<svg width="500" height="500" viewBox="0 0 500 500" fill="none" xmlns="http://www.w3.org/2000/svg" xmlns:xlink="http://www.w3.org/1999/xlink">
<rect x="0.5" y="0.5" width="499" height="499" stroke="#FF8000"/>
<path d="M249.5 169C293.959 169 330 205.041 330 249.5C330 293.959 293.959 330 249.5 330C205.041 330 169 293.959 169 249.5C169 205.041 205.041 169 249.5 169Z" stroke="#FF8000" stroke-width="32"/>
<g id="Repeat group 1_inner" data-figma-trr="r6u5.6-0f">
<path d="M181.801 88.8008V21.8008C181.801 20.1439 183.144 18.8008 184.801 18.8008H314.801C316.458 18.8008 317.801 20.1439 317.801 21.8008V88.8008" stroke="#FF8000" stroke-width="30"/>
</g>
<use xlink:href="#Repeat%20group%201_inner" transform="translate(341.234 -91.4334) rotate(60)"/>
<use xlink:href="#Repeat%20group%201_inner" transform="translate(591.035 158.367) rotate(120)"/>
<use xlink:href="#Repeat%20group%201_inner" transform="translate(499.601 499.602) rotate(-180)"/>
<use xlink:href="#Repeat%20group%201_inner" transform="translate(158.367 591.035) rotate(-120)"/>
<use xlink:href="#Repeat%20group%201_inner" transform="translate(-91.4334 341.234) rotate(-60)"/>
<path d="M154.075 366.62C166.805 377.103 181.28 385.54 197 391.434V425.203C169.707 416.958 145.107 402.512 124.837 383.501L154.075 366.62ZM375.162 383.501C354.893 402.512 330.293 416.958 303 425.203V391.434C318.719 385.54 333.194 377.103 345.924 366.62L375.162 383.501ZM428.233 208.335C431.35 221.719 433 235.667 433 250C433 264.358 431.344 278.329 428.217 291.734L398.965 274.846C400.303 266.762 401 258.463 401 250C401 241.563 400.307 233.287 398.977 225.227L428.233 208.335ZM101.022 225.227C99.6921 233.287 99 241.563 99 250C99 258.462 99.6961 266.762 101.034 274.845L71.7822 291.733C68.6554 278.328 67 264.357 67 250C67 235.667 68.6492 221.719 71.7656 208.335L101.022 225.227ZM197 108.565C181.257 114.468 166.761 122.921 154.018 133.426L124.784 116.548C145.064 97.5122 169.683 83.0482 197 74.7959V108.565ZM303 74.7959C330.316 83.0481 354.935 97.5125 375.215 116.548L345.981 133.426C333.238 122.922 318.743 114.468 303 108.565V74.7959Z" fill="#FF8000"/>
</svg>
