<svg width="1001" height="1001" viewBox="0 0 1001 1001" fill="none" xmlns="http://www.w3.org/2000/svg">
<mask id="path-1-inside-1_66_296" fill="white">
<path d="M70.5873 589.587C48.2083 611.966 30.4564 638.534 18.345 667.773C6.23365 697.013 4.716e-07 728.351 0 760C-4.716e-07 791.649 6.23365 822.987 18.345 852.227C30.4564 881.466 48.2083 908.034 70.5873 930.413C92.9662 952.792 119.534 970.544 148.773 982.655C178.013 994.766 209.351 1001 241 1001C272.649 1001 303.987 994.766 333.227 982.655C362.466 970.544 389.034 952.792 411.413 930.413L317.35 836.35C307.324 846.377 295.421 854.33 282.32 859.757C269.22 865.183 255.18 867.976 241 867.976C226.82 867.976 212.78 865.183 199.68 859.757C186.579 854.33 174.676 846.377 164.65 836.35C154.623 826.324 146.67 814.421 141.243 801.32C135.817 788.22 133.024 774.18 133.024 760C133.024 745.82 135.817 731.78 141.243 718.68C146.67 705.579 154.623 693.676 164.65 683.65L70.5873 589.587Z"/>
</mask>
<path d="M70.5873 589.587C48.2083 611.966 30.4564 638.534 18.345 667.773C6.23365 697.013 4.716e-07 728.351 0 760C-4.716e-07 791.649 6.23365 822.987 18.345 852.227C30.4564 881.466 48.2083 908.034 70.5873 930.413C92.9662 952.792 119.534 970.544 148.773 982.655C178.013 994.766 209.351 1001 241 1001C272.649 1001 303.987 994.766 333.227 982.655C362.466 970.544 389.034 952.792 411.413 930.413L317.35 836.35C307.324 846.377 295.421 854.33 282.32 859.757C269.22 865.183 255.18 867.976 241 867.976C226.82 867.976 212.78 865.183 199.68 859.757C186.579 854.33 174.676 846.377 164.65 836.35C154.623 826.324 146.67 814.421 141.243 801.32C135.817 788.22 133.024 774.18 133.024 760C133.024 745.82 135.817 731.78 141.243 718.68C146.67 705.579 154.623 693.676 164.65 683.65L70.5873 589.587Z" stroke="#47B2F7" stroke-width="136" mask="url(#path-1-inside-1_66_296)"/>
<path d="M434 360C461.366 360 488.416 365.201 513.365 375.535C527.93 381.568 541.724 389.232 554.492 398.354L507.606 445.245C501.507 441.559 495.125 438.328 488.511 435.588C470.884 428.286 452.188 425.024 434 425.024C415.356 425.024 396.894 428.697 379.668 435.832C373.054 438.572 366.672 441.802 360.572 445.488L313.659 398.575C326.426 389.453 340.219 381.79 354.785 375.757C379.899 365.354 406.817 360 434 360Z" stroke="#47B2F7" stroke-width="68"/>
<rect x="70.2764" y="589.918" width="275.497" height="133.016" transform="rotate(-45 70.2764 589.918)" fill="#47B2F7"/>
<path d="M446.282 707.631C500.494 731.647 561.267 736.49 618.598 721.36L618.438 720.759L619.74 722.061L411.055 930.746L317 836.692L446.457 707.234L446.282 707.631Z" fill="#47B2F7"/>
<path d="M604.238 396C617.989 407.903 624 425.519 624 443.286C624 461.052 616.193 478.817 603.592 491.38C590.991 503.942 573.9 511 556.08 511C538.26 511 522.601 502.515 510 489.952L556.08 444.012L604.238 396Z" fill="#47B2F7"/>
<mask id="path-6-inside-2_66_296" fill="white">
<path d="M930.413 411.413C952.792 389.034 970.544 362.466 982.655 333.227C994.766 303.987 1001 272.649 1001 241C1001 209.351 994.766 178.013 982.655 148.773C970.544 119.534 952.792 92.9662 930.413 70.5873C908.034 48.2083 881.466 30.4564 852.227 18.345C822.987 6.23365 791.649 3.13983e-08 760 0C728.351 -3.13983e-08 697.013 6.23365 667.773 18.345C638.534 30.4564 611.966 48.2083 589.587 70.5873L683.65 164.65C693.676 154.623 705.579 146.67 718.68 141.243C731.78 135.817 745.82 133.024 760 133.024C774.18 133.024 788.22 135.817 801.32 141.243C814.421 146.67 826.324 154.623 836.35 164.65C846.377 174.676 854.33 186.579 859.757 199.68C865.183 212.78 867.976 226.82 867.976 241C867.976 255.18 865.183 269.22 859.757 282.32C854.33 295.421 846.377 307.324 836.35 317.35L930.413 411.413Z"/>
</mask>
<path d="M930.413 411.413C952.792 389.034 970.544 362.466 982.655 333.227C994.766 303.987 1001 272.649 1001 241C1001 209.351 994.766 178.013 982.655 148.773C970.544 119.534 952.792 92.9662 930.413 70.5873C908.034 48.2083 881.466 30.4564 852.227 18.345C822.987 6.23365 791.649 3.13983e-08 760 0C728.351 -3.13983e-08 697.013 6.23365 667.773 18.345C638.534 30.4564 611.966 48.2083 589.587 70.5873L683.65 164.65C693.676 154.623 705.579 146.67 718.68 141.243C731.78 135.817 745.82 133.024 760 133.024C774.18 133.024 788.22 135.817 801.32 141.243C814.421 146.67 826.324 154.623 836.35 164.65C846.377 174.676 854.33 186.579 859.757 199.68C865.183 212.78 867.976 226.82 867.976 241C867.976 255.18 865.183 269.22 859.757 282.32C854.33 295.421 846.377 307.324 836.35 317.35L930.413 411.413Z" stroke="#47B2F7" stroke-width="136" mask="url(#path-6-inside-2_66_296)"/>
<path d="M567 641C539.634 641 512.584 635.799 487.635 625.465C473.07 619.432 459.276 611.768 446.508 602.646L493.394 555.755C499.493 559.441 505.875 562.672 512.489 565.412C530.116 572.714 548.812 575.976 567 575.976C585.644 575.976 604.106 572.303 621.332 565.168C627.946 562.428 634.328 559.198 640.428 555.512L687.341 602.425C674.574 611.547 660.781 619.21 646.215 625.243C621.101 635.646 594.183 641 567 641Z" stroke="#47B2F7" stroke-width="68"/>
<rect x="930.724" y="411.082" width="275.497" height="133.016" transform="rotate(135 930.724 411.082)" fill="#47B2F7"/>
<path d="M554.718 293.369C500.506 269.353 439.733 264.51 382.402 279.64L382.562 280.241L381.26 278.939L589.945 70.2539L684 164.308L554.543 293.766L554.718 293.369Z" fill="#47B2F7"/>
<path d="M396.762 605C383.011 593.097 377 575.481 377 557.714C377 539.948 384.807 522.183 397.408 509.62C410.009 497.058 427.1 490 444.92 490C462.74 490 478.399 498.485 491 511.048L444.92 556.988L396.762 605Z" fill="#47B2F7"/>
</svg>
